<svg xmlns="http://www.w3.org/2000/svg" viewBox="0 0 24 24">
  <defs>
    <style>
      .cls-1 {
        fill: none;
      }

      .cls-2 {
        fill: #c3c5c7;
      }
    </style>
  </defs>
  <g id="Photos" transform="translate(0 0)">
    <rect id="사각형_549" data-name="사각형 549" class="cls-1" width="24" height="24" transform="translate(0 0)"/>
    <path id="패스_148" data-name="패스 148" class="cls-2" d="M22.4,0a1.528,1.528,0,0,1,1,.4A1.426,1.426,0,0,1,24,1.6v15a1.528,1.528,0,0,1-.4,1,2.144,2.144,0,0,1-1.2.4H1.6a2.144,2.144,0,0,1-1.2-.4A2.144,2.144,0,0,1,0,16.4V1.6A1.528,1.528,0,0,1,.4.6,1.426,1.426,0,0,1,1.6,0ZM6.8,3.6A2.271,2.271,0,0,0,5.2,3a2.271,2.271,0,0,0-1.6.6A2.271,2.271,0,0,0,3,5.2a2.271,2.271,0,0,0,.6,1.6,2.271,2.271,0,0,0,1.6.6,2.271,2.271,0,0,0,1.6-.6,2.271,2.271,0,0,0,.6-1.6A2.271,2.271,0,0,0,6.8,3.6ZM21,15,15,6,9.6,13,6,10.4,3,15Z" transform="translate(0 3)"/>
  </g>
</svg>
