<svg xmlns="http://www.w3.org/2000/svg" viewBox="0 0 18 18">
  <defs>
    <style>
      .cls-1 {
        fill: none;
      }

      .cls-2 {
        fill: #2699fb;
        fill-rule: evenodd;
      }
    </style>
  </defs>
  <g id="Camera" transform="translate(-308 -380)">
    <rect id="사각형_252" data-name="사각형 252" class="cls-1" width="18" height="18" transform="translate(308 380)"/>
    <path id="패스_110" data-name="패스 110" class="cls-2" d="M9,11.333A2.267,2.267,0,1,0,6.75,9.067,2.265,2.265,0,0,0,9,11.333Zm0-6.8A4.533,4.533,0,1,1,4.5,9.067,4.53,4.53,0,0,1,9,4.533ZM15.75,17H2.25a2.213,2.213,0,0,1-1.575-.68A2.246,2.246,0,0,1,0,14.733V4.533A2.265,2.265,0,0,1,2.25,2.267h1.8L5.737.567A1.856,1.856,0,0,1,7.088,0h3.938a1.8,1.8,0,0,1,1.238.567l1.688,1.7h1.8A2.265,2.265,0,0,1,18,4.533v10.2A2.265,2.265,0,0,1,15.75,17Z" transform="translate(308 381)"/>
  </g>
</svg>
