<svg xmlns="http://www.w3.org/2000/svg" viewBox="0 0 102 102">
  <defs>
    <style>
      .cls-1 {
        fill: none;
      }

      .cls-2 {
        fill: #e9ebee;
      }
    </style>
  </defs>
  <g id="Help" transform="translate(-247 -538)">
    <rect id="사각형_481" data-name="사각형 481" class="cls-1" width="102" height="102" transform="translate(247 538)"/>
    <path id="패스_146" data-name="패스 146" class="cls-2" d="M51,0a51,51,0,1,0,51,51A51.15,51.15,0,0,0,51,0Zm-.51,84.66a7.14,7.14,0,1,1,7.14-7.14A6.972,6.972,0,0,1,50.49,84.66ZM64.26,44.88,58.65,51a6.23,6.23,0,0,0-2.04,4.59,6.2,6.2,0,0,1-6.12,6.12,5.892,5.892,0,0,1-6.12-6.12c0-3.06.51-5.61,4.08-9.18l4.59-5.61c2.55-3.06,3.57-5.1,3.57-7.14A5.351,5.351,0,0,0,51,28.05q-4.59,0-6.12,4.59a6.659,6.659,0,0,1-6.12,3.57,5.351,5.351,0,0,1-5.61-5.61,5.545,5.545,0,0,1,.51-2.55C35.7,21.93,41.82,17.34,51,17.34c10.71,0,17.85,7.14,17.85,16.32C68.85,37.74,67.32,41.31,64.26,44.88Z" transform="translate(247 538)"/>
  </g>
</svg>
