<svg xmlns="http://www.w3.org/2000/svg" viewBox="0 0 32 32">
  <defs>
    <style>
      .cls-1, .cls-5 {
        fill: #2699fb;
      }

      .cls-2 {
        fill: #fff;
      }

      .cls-3 {
        fill: none;
      }

      .cls-4, .cls-5 {
        stroke: none;
      }
    </style>
  </defs>
  <g id="그룹_1912" data-name="그룹 1912" transform="translate(-334 -8)">
    <g id="그룹_1247" data-name="그룹 1247" transform="translate(9 4)">
      <g id="패스_337" data-name="패스 337" class="cls-1" transform="translate(331 10)">
        <path class="cls-4" d="M 10 19.5 C 4.761680126190186 19.5 0.5 15.23832035064697 0.5 10 C 0.5 4.761680126190186 4.761680126190186 0.5 10 0.5 C 15.23832035064697 0.5 19.5 4.761680126190186 19.5 10 C 19.5 15.23832035064697 15.23832035064697 19.5 10 19.5 Z"/>
        <path class="cls-5" d="M 10 1 C 5.037380218505859 1 1 5.037380218505859 1 10 C 1 14.96261978149414 5.037380218505859 19 10 19 C 14.96261978149414 19 19 14.96261978149414 19 10 C 19 5.037380218505859 14.96261978149414 1 10 1 M 10 0 C 15.52285003662109 0 20 4.477149963378906 20 10 C 20 15.52285003662109 15.52285003662109 20 10 20 C 4.477149963378906 20 0 15.52285003662109 0 10 C 0 4.477149963378906 4.477149963378906 0 10 0 Z"/>
      </g>
      <path id="합치기_83" data-name="합치기 83" class="cls-2" d="M0,12V10.5c0-1.65,2.7-3,6-3s6,1.35,6,3V12ZM3,3A3,3,0,1,1,6,6,3,3,0,0,1,3,3Z" transform="translate(335 14)"/>
    </g>
    <rect id="사각형_2751" data-name="사각형 2751" class="cls-3" width="32" height="32" transform="translate(334 8)"/>
  </g>
</svg>
