<?xml version="1.0" encoding="utf-8"?>
<!-- Generator: Adobe Illustrator 23.0.1, SVG Export Plug-In . SVG Version: 6.00 Build 0)  -->
<svg version="1.1" id="레이어_1" xmlns="http://www.w3.org/2000/svg" xmlns:xlink="http://www.w3.org/1999/xlink" x="0px"
	 y="0px" viewBox="0 0 143 36" style="enable-background:new 0 0 143 36;" xml:space="preserve">
<style type="text/css">
	.st0{enable-background:new    ;}
	.st1{fill:#2699FB;}
</style>
<g class="st0">
	<path class="st1" d="M1,18.6c0-6,4-9.4,8.5-9.4c2.3,0,4.2,1.1,5.4,2.3l-2.3,2.7c-0.9-0.8-1.8-1.4-3.1-1.4c-2.3,0-4.2,2.1-4.2,5.5
		c0,3.6,1.6,5.6,4.2,5.6c1.4,0,2.6-0.7,3.4-1.6l2.3,2.7c-1.5,1.8-3.5,2.6-5.8,2.6C4.9,27.8,1,24.6,1,18.6z"/>
	<path class="st1" d="M17.5,8.2h4.2v4.6l-0.2,2.4c1-0.9,2.3-1.8,4.2-1.8c3,0,4.2,2.1,4.2,5.5v8.4h-4.3v-7.9c0-1.9-0.5-2.4-1.6-2.4
		c-1,0-1.5,0.4-2.4,1.2v9.1h-4.2V8.2z"/>
	<path class="st1" d="M32.7,23.6c0-2.9,2.3-4.4,7.6-5c-0.1-1.1-0.7-1.8-2.1-1.8c-1.1,0-2.2,0.4-3.6,1.2l-1.5-2.8
		c1.8-1.1,3.7-1.8,5.9-1.8c3.5,0,5.5,2,5.5,6.2v7.8h-3.5l-0.3-1.4h-0.1c-1.1,1-2.4,1.7-3.9,1.7C34.2,27.8,32.7,25.9,32.7,23.6z
		 M40.3,23.4v-2.2c-2.7,0.4-3.5,1.1-3.5,2.1c0,0.8,0.6,1.2,1.5,1.2C39.1,24.4,39.7,24,40.3,23.4z"/>
	<path class="st1" d="M47.9,22.4v-5.3H46v-3.2l2.1-0.2l0.5-3.6h3.6v3.6h3.2v3.3h-3.2v5.2c0,1.5,0.7,2.1,1.7,2.1
		c0.4,0,0.9-0.1,1.2-0.2l0.7,3.1c-0.7,0.2-1.7,0.5-3.1,0.5C49.3,27.8,47.9,25.6,47.9,22.4z"/>
	<path class="st1" d="M58,22.4v-5.3h-1.8v-3.2l2.1-0.2l0.5-3.6h3.6v3.6h3.2v3.3h-3.2v5.2c0,1.5,0.7,2.1,1.7,2.1
		c0.4,0,0.9-0.1,1.2-0.2l0.7,3.1c-0.7,0.2-1.7,0.5-3.1,0.5C59.4,27.8,58,25.6,58,22.4z"/>
	<path class="st1" d="M66.8,20.6c0-4.4,3.2-7.2,6.5-7.2c3.9,0,5.9,2.9,5.9,6.6c0,0.7-0.1,1.5-0.2,1.8h-8c0.4,1.9,1.7,2.6,3.4,2.6
		c1,0,1.9-0.3,2.9-0.9l1.4,2.6c-1.4,1-3.3,1.6-4.9,1.6C69.9,27.8,66.8,25.1,66.8,20.6z M75.5,19.1c0-1.4-0.6-2.4-2.2-2.4
		c-1.2,0-2.2,0.7-2.5,2.4H75.5z"/>
	<path class="st1" d="M81.9,13.8h3.5l0.3,2.4h0.1c1-1.8,2.5-2.7,3.9-2.7c0.8,0,1.3,0.1,1.7,0.3l-0.7,3.7c-0.5-0.1-0.9-0.2-1.5-0.2
		c-1,0-2.2,0.6-3,2.4v7.8h-4.2V13.8z"/>
	<path class="st1" d="M98.9,9.6h6.2c3.7,0,6.6,1,6.6,4.4c0,1.6-0.9,3.3-2.3,3.9v0.1c1.8,0.5,3.2,1.8,3.2,4.2c0,3.6-3.1,5.3-7,5.3
		h-6.7V9.6z M104.9,16.6c1.8,0,2.6-0.8,2.6-2c0-1.3-0.8-1.8-2.6-1.8h-1.8v3.8H104.9z M105.3,24.1c2.1,0,3.1-0.7,3.1-2.3
		c0-1.5-1-2-3.1-2h-2.1v4.3H105.3z"/>
	<path class="st1" d="M114.4,20.6c0-4.5,3.2-7.2,6.7-7.2c3.5,0,6.7,2.6,6.7,7.2c0,4.5-3.2,7.2-6.7,7.2
		C117.7,27.8,114.4,25.1,114.4,20.6z M123.4,20.6c0-2.3-0.7-3.7-2.3-3.7c-1.6,0-2.3,1.4-2.3,3.7c0,2.3,0.7,3.7,2.3,3.7
		C122.7,24.3,123.4,22.9,123.4,20.6z"/>
	<path class="st1" d="M132.6,20.3l-3.9-6.6h4.6l1.1,2.1c0.4,0.8,0.7,1.6,1.1,2.3h0.1c0.3-0.8,0.6-1.6,0.9-2.3l0.8-2.1h4.4l-3.9,7
		l4.2,6.6h-4.6l-1.2-2.1c-0.4-0.8-0.8-1.6-1.2-2.4h-0.1c-0.3,0.7-0.7,1.5-1,2.4l-0.9,2.1h-4.4L132.6,20.3z"/>
</g>
</svg>
