<?xml version="1.0" encoding="utf-8"?>
<!-- Generator: Adobe Illustrator 23.0.1, SVG Export Plug-In . SVG Version: 6.00 Build 0)  -->
<svg version="1.1" id="레이어_1" xmlns="http://www.w3.org/2000/svg" xmlns:xlink="http://www.w3.org/1999/xlink" x="0px"
	 y="0px" viewBox="0 0 144 24" style="enable-background:new 0 0 144 24;" xml:space="preserve">
<style type="text/css">
	.st0{enable-background:new    ;}
	.st1{fill:#2699FB;}
</style>
<g class="st0">
	<path class="st1" d="M1.5,12.6c0-6,4-9.4,8.5-9.4c2.3,0,4.2,1.1,5.4,2.3l-2.3,2.7c-0.9-0.8-1.8-1.4-3.1-1.4c-2.3,0-4.2,2.1-4.2,5.5
		c0,3.6,1.6,5.6,4.2,5.6c1.4,0,2.6-0.7,3.4-1.6l2.3,2.7c-1.5,1.8-3.5,2.6-5.8,2.6C5.4,21.8,1.5,18.6,1.5,12.6z"/>
	<path class="st1" d="M18,2.2h4.2v4.6L22,9.2c1-0.9,2.3-1.8,4.2-1.8c3,0,4.2,2.1,4.2,5.5v8.4h-4.3v-7.9c0-1.9-0.5-2.4-1.6-2.4
		c-1,0-1.5,0.4-2.4,1.2v9.1h-4.2L18,2.2L18,2.2z"/>
	<path class="st1" d="M33.2,17.6c0-2.9,2.3-4.4,7.6-5c-0.1-1.1-0.7-1.8-2.1-1.8c-1.1,0-2.2,0.4-3.6,1.2l-1.5-2.8
		c1.8-1.1,3.7-1.8,5.9-1.8c3.5,0,5.5,2,5.5,6.2v7.8h-3.5L41.2,20h-0.1c-1.1,1-2.4,1.7-3.9,1.7C34.7,21.8,33.2,19.9,33.2,17.6z
		 M40.8,17.4v-2.2c-2.7,0.4-3.5,1.1-3.5,2.1c0,0.8,0.6,1.2,1.5,1.2C39.6,18.4,40.2,18,40.8,17.4z"/>
	<path class="st1" d="M48.4,16.4v-5.3h-1.9V7.9l2.1-0.2l0.5-3.6h3.6v3.6h3.2V11h-3.2v5.2c0,1.5,0.7,2.1,1.7,2.1
		c0.4,0,0.9-0.1,1.2-0.2l0.7,3.1c-0.7,0.2-1.7,0.5-3.1,0.5C49.8,21.8,48.4,19.6,48.4,16.4z"/>
	<path class="st1" d="M58.5,16.4v-5.3h-1.8V7.9l2.1-0.2l0.5-3.6h3.6v3.6h3.2V11h-3.2v5.2c0,1.5,0.7,2.1,1.7,2.1
		c0.4,0,0.9-0.1,1.2-0.2l0.7,3.1c-0.7,0.2-1.7,0.5-3.1,0.5C59.9,21.8,58.5,19.6,58.5,16.4z"/>
	<path class="st1" d="M67.3,14.6c0-4.4,3.2-7.2,6.5-7.2c3.9,0,5.9,2.9,5.9,6.6c0,0.7-0.1,1.5-0.2,1.8h-8c0.4,1.9,1.7,2.6,3.4,2.6
		c1,0,1.9-0.3,2.9-0.9l1.4,2.6c-1.4,1-3.3,1.6-4.9,1.6C70.4,21.8,67.3,19.1,67.3,14.6z M76,13.1c0-1.4-0.6-2.4-2.2-2.4
		c-1.2,0-2.2,0.7-2.5,2.4H76z"/>
	<path class="st1" d="M82.4,7.8h3.5l0.3,2.4h0.1c1-1.8,2.5-2.7,3.9-2.7c0.8,0,1.3,0.1,1.7,0.3l-0.7,3.7c-0.5-0.1-0.9-0.2-1.5-0.2
		c-1,0-2.2,0.6-3,2.4v7.8h-4.2V7.8H82.4z"/>
	<path class="st1" d="M99.4,3.6h6.2c3.7,0,6.6,1,6.6,4.4c0,1.6-0.9,3.3-2.3,3.9V12c1.8,0.5,3.2,1.8,3.2,4.2c0,3.6-3.1,5.3-7,5.3
		h-6.7C99.4,21.5,99.4,3.6,99.4,3.6z M105.4,10.6c1.8,0,2.6-0.8,2.6-2c0-1.3-0.8-1.8-2.6-1.8h-1.8v3.8H105.4z M105.8,18.1
		c2.1,0,3.1-0.7,3.1-2.3c0-1.5-1-2-3.1-2h-2.1v4.3C103.7,18.1,105.8,18.1,105.8,18.1z"/>
	<path class="st1" d="M114.9,14.6c0-4.5,3.2-7.2,6.7-7.2s6.7,2.6,6.7,7.2c0,4.5-3.2,7.2-6.7,7.2C118.2,21.8,114.9,19.1,114.9,14.6z
		 M123.9,14.6c0-2.3-0.7-3.7-2.3-3.7c-1.6,0-2.3,1.4-2.3,3.7s0.7,3.7,2.3,3.7C123.2,18.3,123.9,16.9,123.9,14.6z"/>
	<path class="st1" d="M133.1,14.3l-3.9-6.6h4.6l1.1,2.1c0.4,0.8,0.7,1.6,1.1,2.3h0.1c0.3-0.8,0.6-1.6,0.9-2.3l0.8-2.1h4.4l-3.9,7
		l4.2,6.6h-4.6l-1.2-2.1c-0.4-0.8-0.8-1.6-1.2-2.4h-0.1c-0.3,0.7-0.7,1.5-1,2.4l-0.9,2.1h-4.4L133.1,14.3z"/>
</g>
</svg>
