<svg xmlns="http://www.w3.org/2000/svg" viewBox="0 0 14 14">
  <defs>
    <style>
      .cls-1 {
        fill: #fff;
      }

      .cls-2 {
        fill: #c3c5c7;
      }
    </style>
  </defs>
  <g id="심볼_68_6" data-name="심볼 68 – 6" transform="translate(-354 -227)">
    <rect id="사각형_2737" data-name="사각형 2737" class="cls-1" width="14" height="14" transform="translate(354 227)"/>
    <g id="if_BT_arrow_left_905524" transform="translate(483.416 834.635) rotate(180)">
      <path id="path3766-1" class="cls-2" d="M127.416,596.194a.665.665,0,0,0-.205-.464l-1.984-1.9a.724.724,0,0,0-.992,0l-6.613,6.329a.651.651,0,0,0,0,.95l6.613,6.329a.724.724,0,0,0,.992,0l1.984-1.9a.651.651,0,0,0,0-.948l-4.133-3.956,4.133-3.956a.665.665,0,0,0,.205-.484Z" transform="translate(0)"/>
    </g>
  </g>
</svg>
