<svg xmlns="http://www.w3.org/2000/svg" viewBox="0 0 102 102">
  <defs>
    <style>
      .cls-1 {
        fill: #e9ebee;
      }
    </style>
  </defs>
  <path id="제외_1" data-name="제외 1" class="cls-1" d="M51,102A51.013,51.013,0,0,1,31.149,4.008a51.013,51.013,0,0,1,39.7,93.984A50.681,50.681,0,0,1,51,102ZM63.265,68.547h0L75.717,81,81,75.717,68.548,63.264a25.87,25.87,0,0,0,5.283-15.849A26.134,26.134,0,0,0,47.415,21,26.134,26.134,0,0,0,21,47.415,26.134,26.134,0,0,0,47.415,73.83a25.872,25.872,0,0,0,15.849-5.282Zm-15.85-2.263a18.686,18.686,0,1,1,13.4-5.472A18.784,18.784,0,0,1,47.415,66.283Z"/>
</svg>
