<svg xmlns="http://www.w3.org/2000/svg" viewBox="0 0 18 18">
  <defs>
    <style>
      .cls-1 {
        fill: #fff;
      }

      .cls-2 {
        fill: #2699fb;
      }
    </style>
  </defs>
  <g id="그룹_2333" data-name="그룹 2333" transform="translate(-1854 -171)">
    <rect id="사각형_2812" data-name="사각형 2812" class="cls-1" width="18" height="18" transform="translate(1854 171)"/>
    <path id="공유하기_아이콘" data-name="공유하기 아이콘" class="cls-2" d="M20.927,18.328a2.729,2.729,0,0,0-1.983.853l-5.831-2.855a2.494,2.494,0,0,0,0-.809l5.823-2.824a2.737,2.737,0,1,0-.749-1.879,2.759,2.759,0,0,0,.032.4L12.4,14.038A2.74,2.74,0,1,0,12.39,17.8l5.831,2.855a2.738,2.738,0,1,0,2.706-2.33Z" transform="translate(1847.333 163.925)"/>
  </g>
</svg>
