<svg xmlns="http://www.w3.org/2000/svg" viewBox="0 0 60 60">
  <defs>
    <style>
      .cls-1, .cls-2 {
        fill: none;
      }

      .cls-1 {
        stroke: #fff;
        stroke-width: 2px;
      }

      .cls-3 {
        fill: #fff;
      }

      .cls-4 {
        stroke: none;
      }
    </style>
  </defs>
  <g id="그룹_1614" data-name="그룹 1614" transform="translate(-158 -417)">
    <g id="사각형_2142" data-name="사각형 2142" class="cls-1" transform="translate(158 417)">
      <rect class="cls-4" width="60" height="60"/>
      <rect class="cls-2" x="1" y="1" width="58" height="58"/>
    </g>
    <g id="Attachment" transform="translate(-193 -161)">
      <rect id="사각형_314" data-name="사각형 314" class="cls-2" width="32" height="32" transform="translate(365 592)"/>
      <path id="패스_125" data-name="패스 125" class="cls-3" d="M11.2,32a10.091,10.091,0,0,1-7.467-3.2A10.3,10.3,0,0,1,0,20.8a10.7,10.7,0,0,1,.8-4,9.221,9.221,0,0,1,1.867-3.2L8,8.267A6.426,6.426,0,0,1,12.8,6.4a7.285,7.285,0,0,1,5.067,2.133A6.847,6.847,0,0,1,20,13.867a6.426,6.426,0,0,1-1.867,4.8L15.2,21.333a2.037,2.037,0,0,1-1.333.533,2.859,2.859,0,0,1-1.6-.533,3.79,3.79,0,0,1-.533-1.6,3.79,3.79,0,0,1,.533-1.6L15.2,15.2a1.612,1.612,0,0,0,.8-1.6,3.257,3.257,0,0,0-1.067-2.4,3.108,3.108,0,0,0-1.867-.533A3.854,3.854,0,0,0,11.2,11.2L5.6,16.533A7.378,7.378,0,0,0,4.267,20.8,7.8,7.8,0,0,0,6.4,25.867a5.533,5.533,0,0,0,2.667,1.6,4.61,4.61,0,0,0,2.667.267c.8-.267,1.6-.267,2.133-.533a5.579,5.579,0,0,0,1.6-1.067L26.133,15.467A5.849,5.849,0,0,0,28,10.933a6.986,6.986,0,0,0-2.4-5.067,11.875,11.875,0,0,0-3.2-1.6H20a5.647,5.647,0,0,0-1.867.8,3.382,3.382,0,0,1-1.6.267A1.772,1.772,0,0,1,15.2,4.267c-.267-.267-.267-.8-.267-1.6A4.682,4.682,0,0,1,16,1.333,10.5,10.5,0,0,1,21.333,0a9.872,9.872,0,0,1,6.933,2.667,11.253,11.253,0,0,1,3.733,8A10.436,10.436,0,0,1,29.067,18.4L18.4,29.067A9.847,9.847,0,0,1,11.2,32Z" transform="translate(365 592)"/>
    </g>
  </g>
</svg>
