<svg xmlns="http://www.w3.org/2000/svg" viewBox="0 0 60 60">
  <defs>
    <style>
      .cls-1, .cls-4 {
        fill: none;
      }

      .cls-1 {
        stroke: #fff;
        stroke-width: 2px;
      }

      .cls-2 {
        fill: #fff;
        fill-rule: evenodd;
      }

      .cls-3 {
        stroke: none;
      }
    </style>
  </defs>
  <g id="그룹_1981" data-name="그룹 1981" transform="translate(-158 -265)">
    <g id="사각형_2140" data-name="사각형 2140" class="cls-1" transform="translate(158 265)">
      <rect class="cls-3" width="60" height="60"/>
      <rect class="cls-4" x="1" y="1" width="58" height="58"/>
    </g>
    <g id="Instagram" transform="translate(-1077 -565)">
      <path id="패스_3" data-name="패스 3" class="cls-2" d="M16,2.844a49.059,49.059,0,0,1,6.4.178,8.246,8.246,0,0,1,3.022.533,6.243,6.243,0,0,1,3.022,3.022A8.246,8.246,0,0,1,28.978,9.6c0,1.6.178,2.133.178,6.4a49.059,49.059,0,0,1-.178,6.4,8.246,8.246,0,0,1-.533,3.022,6.243,6.243,0,0,1-3.022,3.022,8.246,8.246,0,0,1-3.022.533c-1.6,0-2.133.178-6.4.178a49.059,49.059,0,0,1-6.4-.178,8.246,8.246,0,0,1-3.022-.533,6.243,6.243,0,0,1-3.022-3.022A8.246,8.246,0,0,1,3.022,22.4c0-1.6-.178-2.133-.178-6.4a49.059,49.059,0,0,1,.178-6.4,8.246,8.246,0,0,1,.533-3.022A6.385,6.385,0,0,1,4.8,4.8,3.006,3.006,0,0,1,6.578,3.556,8.246,8.246,0,0,1,9.6,3.022,49.059,49.059,0,0,1,16,2.844M16,0A52.528,52.528,0,0,0,9.422.178,10.975,10.975,0,0,0,5.511.889,6.96,6.96,0,0,0,2.667,2.667,6.96,6.96,0,0,0,.889,5.511,8.1,8.1,0,0,0,.178,9.422,52.528,52.528,0,0,0,0,16a52.528,52.528,0,0,0,.178,6.578,10.975,10.975,0,0,0,.711,3.911,6.96,6.96,0,0,0,1.778,2.844,6.96,6.96,0,0,0,2.844,1.778,10.975,10.975,0,0,0,3.911.711A52.528,52.528,0,0,0,16,32a52.528,52.528,0,0,0,6.578-.178,10.975,10.975,0,0,0,3.911-.711,7.459,7.459,0,0,0,4.622-4.622,10.975,10.975,0,0,0,.711-3.911C31.822,20.8,32,20.267,32,16a52.528,52.528,0,0,0-.178-6.578,10.975,10.975,0,0,0-.711-3.911,6.96,6.96,0,0,0-1.778-2.844A6.96,6.96,0,0,0,26.489.889,10.975,10.975,0,0,0,22.578.178,52.528,52.528,0,0,0,16,0m0,7.822A8.046,8.046,0,0,0,7.822,16,8.178,8.178,0,1,0,16,7.822m0,13.511A5.238,5.238,0,0,1,10.667,16,5.238,5.238,0,0,1,16,10.667,5.238,5.238,0,0,1,21.333,16,5.238,5.238,0,0,1,16,21.333M24.533,5.511a1.956,1.956,0,1,0,1.956,1.956,1.973,1.973,0,0,0-1.956-1.956" transform="translate(1249 844)"/>
    </g>
  </g>
</svg>
