<svg xmlns="http://www.w3.org/2000/svg" viewBox="0 0 32 32">
  <defs>
    <style>
      .cls-1 {
        fill: none;
      }

      .cls-2 {
        fill: #2699fb;
      }
    </style>
  </defs>
  <g id="그룹_1913" data-name="그룹 1913" transform="translate(-299 -8)">
    <g id="그룹_1245" data-name="그룹 1245" transform="translate(158)">
      <rect id="사각형_176" data-name="사각형 176" class="cls-1" width="18" height="18" transform="translate(148 15)"/>
      <path id="패스_99" data-name="패스 99" class="cls-2" d="M17.875,16.3l-3.71-3.71a7.7,7.7,0,0,0,1.574-4.722A7.821,7.821,0,0,0,7.869,0,7.821,7.821,0,0,0,0,7.869a7.821,7.821,0,0,0,7.869,7.869,7.7,7.7,0,0,0,4.722-1.574l3.71,3.71ZM2.248,7.869A5.566,5.566,0,0,1,7.869,2.248a5.566,5.566,0,0,1,5.621,5.621,5.566,5.566,0,0,1-5.621,5.621A5.566,5.566,0,0,1,2.248,7.869Z" transform="translate(148 15)"/>
    </g>
    <rect id="사각형_2752" data-name="사각형 2752" class="cls-1" width="32" height="32" transform="translate(299 8)"/>
  </g>
</svg>
